<?xml version="1.0" encoding="utf-8"?>
<svg xmlns="http://www.w3.org/2000/svg" xmlns:xlink="http://www.w3.org/1999/xlink" style="margin: auto; background: rgb(255, 255, 255); display: block; shape-rendering: auto;" width="470px" height="470px" viewBox="0 0 100 100" preserveAspectRatio="xMidYMid">
<g transform="rotate(0 50 50)">
  <rect x="48" y="23" rx="2" ry="6" width="4" height="12" fill="#79c142">
    <animate attributeName="opacity" values="1;0" keyTimes="0;1" dur="0.53475935828877s" begin="-0.5013368983957219s" repeatCount="indefinite"></animate>
  </rect>
</g><g transform="rotate(22.5 50 50)">
  <rect x="48" y="23" rx="2" ry="6" width="4" height="12" fill="#79c142">
    <animate attributeName="opacity" values="1;0" keyTimes="0;1" dur="0.53475935828877s" begin="-0.4679144385026738s" repeatCount="indefinite"></animate>
  </rect>
</g><g transform="rotate(45 50 50)">
  <rect x="48" y="23" rx="2" ry="6" width="4" height="12" fill="#79c142">
    <animate attributeName="opacity" values="1;0" keyTimes="0;1" dur="0.53475935828877s" begin="-0.43449197860962563s" repeatCount="indefinite"></animate>
  </rect>
</g><g transform="rotate(67.5 50 50)">
  <rect x="48" y="23" rx="2" ry="6" width="4" height="12" fill="#79c142">
    <animate attributeName="opacity" values="1;0" keyTimes="0;1" dur="0.53475935828877s" begin="-0.40106951871657753s" repeatCount="indefinite"></animate>
  </rect>
</g><g transform="rotate(90 50 50)">
  <rect x="48" y="23" rx="2" ry="6" width="4" height="12" fill="#79c142">
    <animate attributeName="opacity" values="1;0" keyTimes="0;1" dur="0.53475935828877s" begin="-0.3676470588235294s" repeatCount="indefinite"></animate>
  </rect>
</g><g transform="rotate(112.5 50 50)">
  <rect x="48" y="23" rx="2" ry="6" width="4" height="12" fill="#79c142">
    <animate attributeName="opacity" values="1;0" keyTimes="0;1" dur="0.53475935828877s" begin="-0.3342245989304813s" repeatCount="indefinite"></animate>
  </rect>
</g><g transform="rotate(135 50 50)">
  <rect x="48" y="23" rx="2" ry="6" width="4" height="12" fill="#79c142">
    <animate attributeName="opacity" values="1;0" keyTimes="0;1" dur="0.53475935828877s" begin="-0.30080213903743314s" repeatCount="indefinite"></animate>
  </rect>
</g><g transform="rotate(157.5 50 50)">
  <rect x="48" y="23" rx="2" ry="6" width="4" height="12" fill="#79c142">
    <animate attributeName="opacity" values="1;0" keyTimes="0;1" dur="0.53475935828877s" begin="-0.267379679144385s" repeatCount="indefinite"></animate>
  </rect>
</g><g transform="rotate(180 50 50)">
  <rect x="48" y="23" rx="2" ry="6" width="4" height="12" fill="#79c142">
    <animate attributeName="opacity" values="1;0" keyTimes="0;1" dur="0.53475935828877s" begin="-0.2339572192513369s" repeatCount="indefinite"></animate>
  </rect>
</g><g transform="rotate(202.5 50 50)">
  <rect x="48" y="23" rx="2" ry="6" width="4" height="12" fill="#79c142">
    <animate attributeName="opacity" values="1;0" keyTimes="0;1" dur="0.53475935828877s" begin="-0.20053475935828877s" repeatCount="indefinite"></animate>
  </rect>
</g><g transform="rotate(225 50 50)">
  <rect x="48" y="23" rx="2" ry="6" width="4" height="12" fill="#79c142">
    <animate attributeName="opacity" values="1;0" keyTimes="0;1" dur="0.53475935828877s" begin="-0.16711229946524064s" repeatCount="indefinite"></animate>
  </rect>
</g><g transform="rotate(247.5 50 50)">
  <rect x="48" y="23" rx="2" ry="6" width="4" height="12" fill="#79c142">
    <animate attributeName="opacity" values="1;0" keyTimes="0;1" dur="0.53475935828877s" begin="-0.1336898395721925s" repeatCount="indefinite"></animate>
  </rect>
</g><g transform="rotate(270 50 50)">
  <rect x="48" y="23" rx="2" ry="6" width="4" height="12" fill="#79c142">
    <animate attributeName="opacity" values="1;0" keyTimes="0;1" dur="0.53475935828877s" begin="-0.10026737967914438s" repeatCount="indefinite"></animate>
  </rect>
</g><g transform="rotate(292.5 50 50)">
  <rect x="48" y="23" rx="2" ry="6" width="4" height="12" fill="#79c142">
    <animate attributeName="opacity" values="1;0" keyTimes="0;1" dur="0.53475935828877s" begin="-0.06684491978609625s" repeatCount="indefinite"></animate>
  </rect>
</g><g transform="rotate(315 50 50)">
  <rect x="48" y="23" rx="2" ry="6" width="4" height="12" fill="#79c142">
    <animate attributeName="opacity" values="1;0" keyTimes="0;1" dur="0.53475935828877s" begin="-0.03342245989304812s" repeatCount="indefinite"></animate>
  </rect>
</g><g transform="rotate(337.5 50 50)">
  <rect x="48" y="23" rx="2" ry="6" width="4" height="12" fill="#79c142">
    <animate attributeName="opacity" values="1;0" keyTimes="0;1" dur="0.53475935828877s" begin="0s" repeatCount="indefinite"></animate>
  </rect>
</g>
<!-- [ldio] generated by https://loading.io/ --></svg>